<svg width="12" height="12" viewBox="0 0 12 12" fill="none" xmlns="http://www.w3.org/2000/svg">
<path d="M0.5 10V8.60001C0.5 8.31668 0.573 8.05635 0.719 7.81901C0.865 7.58168 1.05867 7.40035 1.3 7.27501C1.81667 7.01668 2.34167 6.82301 2.875 6.69401C3.40833 6.56501 3.95 6.50035 4.5 6.50001C5.05 6.49968 5.59167 6.56435 6.125 6.69401C6.65833 6.82368 7.18333 7.01735 7.7 7.27501C7.94167 7.40001 8.1355 7.58135 8.2815 7.81901C8.4275 8.05668 8.50033 8.31701 8.5 8.60001V10H0.5ZM9.5 10V8.50001C9.5 8.13335 9.398 7.78118 9.194 7.44351C8.99 7.10585 8.70033 6.81635 8.325 6.57501C8.75 6.62501 9.15 6.71051 9.525 6.83151C9.9 6.95251 10.25 7.10035 10.575 7.27501C10.875 7.44168 11.1042 7.62701 11.2625 7.83101C11.4208 8.03501 11.5 8.25801 11.5 8.50001V10H9.5ZM4.5 6.00001C3.95 6.00001 3.47917 5.80418 3.0875 5.41251C2.69583 5.02085 2.5 4.55001 2.5 4.00001C2.5 3.45001 2.69583 2.97918 3.0875 2.58751C3.47917 2.19585 3.95 2.00001 4.5 2.00001C5.05 2.00001 5.52083 2.19585 5.9125 2.58751C6.30417 2.97918 6.5 3.45001 6.5 4.00001C6.5 4.55001 6.30417 5.02085 5.9125 5.41251C5.52083 5.80418 5.05 6.00001 4.5 6.00001ZM9.5 4.00001C9.5 4.55001 9.30417 5.02085 8.9125 5.41251C8.52083 5.80418 8.05 6.00001 7.5 6.00001C7.40833 6.00001 7.29167 5.98968 7.15 5.96901C7.00833 5.94835 6.89167 5.92535 6.8 5.90001C7.025 5.63335 7.198 5.33751 7.319 5.01251C7.44 4.68751 7.50033 4.35001 7.5 4.00001C7.49967 3.65001 7.43933 3.31251 7.319 2.98751C7.19867 2.66251 7.02567 2.36668 6.8 2.10001C6.91667 2.05835 7.03333 2.03118 7.15 2.01851C7.26667 2.00585 7.38333 1.99968 7.5 2.00001C8.05 2.00001 8.52083 2.19585 8.9125 2.58751C9.30417 2.97918 9.5 3.45001 9.5 4.00001Z" fill="#2C2C2C"/>
</svg>
